<svg xmlns="http://www.w3.org/2000/svg" width="227" height="227" viewBox="0 0 227 227" fill="none"><path d="M204.454 126.639L205.662 129.086C205.692 129.145 205.736 129.197 205.789 129.236C205.843 129.275 205.905 129.302 205.971 129.313L208.695 129.703C208.771 129.714 208.842 129.746 208.901 129.795C208.96 129.844 209.003 129.909 209.027 129.982C209.051 130.055 209.053 130.133 209.035 130.207C209.016 130.282 208.977 130.349 208.922 130.402L206.965 132.309C206.918 132.356 206.883 132.413 206.862 132.477C206.842 132.54 206.836 132.607 206.847 132.672L207.301 135.365C207.314 135.44 207.306 135.518 207.277 135.589C207.249 135.66 207.2 135.721 207.138 135.766C207.076 135.811 207.003 135.838 206.927 135.843C206.85 135.848 206.774 135.832 206.706 135.796L204.286 134.525C204.228 134.493 204.162 134.477 204.096 134.477C204.029 134.477 203.964 134.493 203.905 134.525L201.49 135.796C201.422 135.832 201.346 135.848 201.269 135.843C201.193 135.838 201.12 135.811 201.058 135.766C200.996 135.721 200.947 135.66 200.919 135.589C200.89 135.518 200.882 135.44 200.895 135.365L201.349 132.672C201.361 132.607 201.356 132.539 201.336 132.476C201.315 132.413 201.279 132.355 201.231 132.309L199.274 130.402C199.221 130.349 199.183 130.281 199.165 130.207C199.148 130.133 199.151 130.056 199.174 129.984C199.198 129.911 199.241 129.847 199.298 129.797C199.356 129.748 199.426 129.715 199.501 129.703L202.225 129.313C202.291 129.302 202.353 129.276 202.407 129.237C202.461 129.197 202.504 129.146 202.534 129.086L203.742 126.639C203.777 126.575 203.829 126.523 203.891 126.486C203.954 126.449 204.025 126.43 204.098 126.43C204.171 126.43 204.242 126.449 204.305 126.486C204.367 126.523 204.419 126.575 204.454 126.639Z" fill="#7765F3"></path><path d="M20.2257 97.097L21.4333 99.5486C21.4626 99.6082 21.506 99.6597 21.5599 99.6985C21.6137 99.7373 21.6763 99.7622 21.7421 99.7711L24.4661 100.166C24.542 100.177 24.6135 100.208 24.6722 100.258C24.731 100.307 24.7747 100.372 24.7984 100.445C24.8221 100.518 24.8248 100.596 24.8061 100.67C24.7875 100.744 24.7483 100.812 24.6931 100.865L22.7 102.772C22.6512 102.818 22.6148 102.875 22.5942 102.938C22.5735 103.002 22.5693 103.07 22.582 103.135L23.036 105.827C23.0547 105.905 23.0505 105.985 23.0241 106.06C22.9976 106.135 22.9499 106.2 22.8868 106.249C22.8238 106.297 22.748 106.326 22.6689 106.331C22.5898 106.337 22.5107 106.32 22.4412 106.281L20.0259 105.01C19.9673 104.979 19.9018 104.962 19.8353 104.962C19.7687 104.962 19.7032 104.979 19.6446 105.01L17.252 106.259C17.1826 106.297 17.1034 106.314 17.0243 106.309C16.9452 106.303 16.8695 106.274 16.8064 106.226C16.7433 106.178 16.6956 106.112 16.6692 106.038C16.6427 105.963 16.6385 105.882 16.6573 105.805L17.1113 103.113C17.1227 103.047 17.1179 102.98 17.0973 102.916C17.0767 102.853 17.041 102.796 16.9932 102.749L15.0365 100.843C14.9812 100.789 14.942 100.722 14.9234 100.647C14.9048 100.573 14.9075 100.495 14.9311 100.422C14.9548 100.349 14.9985 100.284 15.0573 100.235C15.1161 100.186 15.1875 100.154 15.2635 100.143L17.9875 99.7484C18.053 99.7388 18.1152 99.7135 18.169 99.6748C18.2227 99.6361 18.2663 99.585 18.2962 99.5259L19.5038 97.0743C19.5406 97.0098 19.5943 96.9565 19.6591 96.9203C19.7239 96.884 19.7974 96.866 19.8716 96.8684C19.9458 96.8707 20.018 96.8932 20.0804 96.9335C20.1428 96.9738 20.193 97.0303 20.2257 97.097Z" fill="#7765F3"></path><path d="M178.526 199.76L179.276 201.281C179.294 201.318 179.32 201.35 179.353 201.375C179.387 201.399 179.425 201.415 179.466 201.422L181.146 201.662C181.197 201.665 181.247 201.684 181.287 201.716C181.328 201.748 181.358 201.791 181.373 201.841C181.388 201.89 181.388 201.943 181.373 201.992C181.357 202.041 181.327 202.084 181.287 202.116L180.075 203.301C180.044 203.329 180.021 203.364 180.008 203.403C179.994 203.441 179.991 203.483 179.997 203.524L180.288 205.199C180.295 205.246 180.288 205.293 180.27 205.337C180.251 205.38 180.221 205.418 180.183 205.446C180.145 205.473 180.099 205.49 180.052 205.493C180.005 205.497 179.958 205.488 179.916 205.467L178.422 204.668C178.386 204.647 178.345 204.637 178.304 204.637C178.263 204.637 178.222 204.647 178.186 204.668L176.688 205.458C176.646 205.481 176.598 205.491 176.55 205.488C176.502 205.485 176.456 205.469 176.417 205.441C176.378 205.413 176.348 205.375 176.33 205.33C176.312 205.286 176.307 205.237 176.315 205.19L176.601 203.515C176.61 203.474 176.608 203.433 176.595 203.393C176.583 203.354 176.56 203.319 176.529 203.292L175.317 202.107C175.276 202.075 175.246 202.032 175.231 201.983C175.215 201.934 175.215 201.881 175.23 201.832C175.246 201.782 175.276 201.739 175.316 201.707C175.357 201.675 175.406 201.656 175.457 201.653L177.137 201.413C177.178 201.406 177.217 201.39 177.25 201.366C177.283 201.341 177.31 201.309 177.328 201.272L178.077 199.751C178.099 199.71 178.132 199.677 178.173 199.654C178.213 199.631 178.258 199.619 178.304 199.62C178.351 199.621 178.396 199.634 178.435 199.659C178.474 199.684 178.506 199.719 178.526 199.76Z" fill="#7765F3"></path><path d="M22.7 82.2602L23.4491 83.7811C23.4681 83.8184 23.4957 83.8506 23.5297 83.8751C23.5636 83.8996 23.6029 83.9156 23.6443 83.9219L25.3241 84.167C25.3756 84.1703 25.4248 84.1891 25.4654 84.2209C25.5059 84.2528 25.5358 84.2962 25.5511 84.3455C25.5663 84.3947 25.5663 84.4475 25.5509 84.4967C25.5355 84.5459 25.5055 84.5893 25.4649 84.621L24.2572 85.806C24.2281 85.8354 24.2064 85.8713 24.1937 85.9108C24.1811 85.9502 24.178 85.9921 24.1846 86.033L24.4706 87.7037C24.4784 87.7503 24.4731 87.7981 24.4553 87.8419C24.4374 87.8856 24.4078 87.9235 24.3696 87.9513C24.3314 87.9792 24.2862 87.9958 24.2391 87.9994C24.192 88.0029 24.1448 87.9933 24.1029 87.9716L22.6001 87.168C22.5634 87.1499 22.523 87.1406 22.4821 87.1406C22.4412 87.1406 22.4008 87.1499 22.364 87.168L20.884 87.9489C20.8421 87.9706 20.7949 87.9802 20.7478 87.9767C20.7007 87.9731 20.6555 87.9565 20.6173 87.9286C20.5791 87.9008 20.5494 87.8629 20.5316 87.8192C20.5137 87.7754 20.5084 87.7276 20.5163 87.681L20.8023 86.0103C20.8089 85.9694 20.8057 85.9275 20.7931 85.8881C20.7805 85.8486 20.7587 85.8127 20.7296 85.7833L19.5129 84.5983C19.4723 84.5666 19.4423 84.5232 19.4269 84.474C19.4115 84.4248 19.4114 84.372 19.4267 84.3228C19.442 84.2735 19.4719 84.2301 19.5124 84.1982C19.5529 84.1664 19.6022 84.1476 19.6537 84.1443L21.3335 83.8992C21.3743 83.893 21.413 83.8769 21.4462 83.8524C21.4794 83.8279 21.5062 83.7956 21.5241 83.7584L22.246 82.2602C22.2672 82.2182 22.2996 82.1829 22.3397 82.1582C22.3798 82.1336 22.4259 82.1205 22.473 82.1205C22.5201 82.1205 22.5662 82.1336 22.6063 82.1582C22.6464 82.1829 22.6788 82.2182 22.7 82.2602Z" fill="#7765F3"></path><path d="M200.564 117.936L200.936 118.694C200.945 118.713 200.958 118.729 200.975 118.742C200.991 118.754 201.011 118.763 201.031 118.766L201.871 118.889C201.895 118.891 201.918 118.9 201.937 118.914C201.956 118.929 201.97 118.949 201.978 118.972C201.986 118.994 201.986 119.019 201.98 119.042C201.974 119.065 201.962 119.086 201.944 119.102L201.335 119.697C201.321 119.712 201.31 119.73 201.304 119.749C201.297 119.769 201.296 119.79 201.299 119.811L201.444 120.646C201.448 120.669 201.445 120.693 201.436 120.715C201.427 120.737 201.412 120.756 201.392 120.77C201.373 120.783 201.35 120.791 201.326 120.793C201.303 120.794 201.279 120.789 201.258 120.778L200.509 120.383C200.491 120.374 200.471 120.369 200.45 120.369C200.43 120.369 200.409 120.374 200.391 120.383L199.637 120.778C199.617 120.789 199.593 120.794 199.569 120.793C199.546 120.791 199.523 120.783 199.503 120.77C199.484 120.756 199.469 120.737 199.46 120.715C199.45 120.693 199.448 120.669 199.451 120.646L199.597 119.811C199.601 119.79 199.6 119.769 199.594 119.749C199.587 119.729 199.576 119.711 199.56 119.697L198.952 119.102C198.936 119.086 198.925 119.065 198.92 119.042C198.915 119.019 198.916 118.996 198.924 118.974C198.931 118.952 198.944 118.932 198.962 118.917C198.98 118.902 199.002 118.892 199.025 118.889L199.864 118.766C199.885 118.763 199.904 118.754 199.921 118.742C199.937 118.729 199.951 118.713 199.96 118.694L200.332 117.936C200.343 117.915 200.36 117.897 200.38 117.885C200.401 117.873 200.424 117.867 200.448 117.867C200.472 117.867 200.495 117.873 200.515 117.885C200.536 117.897 200.552 117.915 200.564 117.936Z" fill="#7765F3"></path><path d="M84.0626 14.7777L84.4395 15.5404C84.4484 15.5588 84.4618 15.5747 84.4785 15.5866C84.4951 15.5985 84.5145 15.606 84.5348 15.6085L85.3747 15.7311C85.3982 15.7347 85.4202 15.7448 85.4383 15.7604C85.4563 15.7759 85.4696 15.7961 85.4767 15.8188C85.4838 15.8415 85.4844 15.8657 85.4784 15.8888C85.4724 15.9118 85.4601 15.9327 85.4428 15.949L84.8344 16.5392C84.8209 16.5546 84.8108 16.5727 84.8045 16.5922C84.7983 16.6117 84.7961 16.6323 84.7981 16.6527L84.9434 17.4881C84.9482 17.5118 84.946 17.5365 84.9372 17.5591C84.9284 17.5817 84.9134 17.6013 84.8938 17.6156C84.8742 17.6299 84.851 17.6383 84.8268 17.6399C84.8026 17.6414 84.7785 17.636 84.7573 17.6243L83.99 17.252C83.9724 17.2406 83.9519 17.2346 83.931 17.2346C83.91 17.2346 83.8896 17.2406 83.872 17.252L83.1183 17.647C83.0972 17.6574 83.0737 17.6618 83.0502 17.6597C83.0268 17.6575 83.0044 17.6489 82.9856 17.6348C82.9668 17.6206 82.9522 17.6016 82.9436 17.5797C82.935 17.5578 82.9326 17.5339 82.9367 17.5108L83.0775 16.6754C83.0816 16.655 83.0804 16.6338 83.074 16.6139C83.0677 16.5941 83.0563 16.5762 83.0411 16.5619L82.4373 15.9717C82.4201 15.9554 82.4077 15.9345 82.4017 15.9115C82.3957 15.8884 82.3963 15.8642 82.4034 15.8415C82.4105 15.8188 82.4238 15.7986 82.4419 15.7831C82.4599 15.7675 82.4819 15.7574 82.5054 15.7538L83.3453 15.6312C83.3656 15.6287 83.385 15.6212 83.4017 15.6093C83.4183 15.5974 83.4317 15.5815 83.4407 15.5631L83.8175 14.8004C83.822 14.7726 83.8356 14.747 83.8562 14.7277C83.8768 14.7085 83.9032 14.6966 83.9313 14.694C83.9593 14.6914 83.9875 14.6982 84.0113 14.7134C84.035 14.7285 84.0531 14.7511 84.0626 14.7777Z" fill="#7765F3"></path><path d="M216.698 95.4434C218.191 86.4649 212.122 77.9762 203.144 76.4834C194.165 74.9906 185.677 81.0589 184.184 90.0374C182.691 99.0159 188.759 107.505 197.738 108.997C206.716 110.49 215.205 104.422 216.698 95.4434Z" fill="#7765F3"></path><path d="M212.766 94.6381C215.067 90.5241 213.598 85.3235 209.484 83.0224C205.37 80.7212 200.169 82.1909 197.868 86.3049C195.567 90.419 197.036 95.6195 201.15 97.9206C205.265 100.222 210.465 98.7521 212.766 94.6381Z" fill="white"></path><path d="M205.312 100.116C202.865 100.117 200.509 99.1885 198.72 97.518C196.931 95.8476 195.844 93.56 195.678 91.1182C195.512 88.6765 196.28 86.2629 197.826 84.3658C199.373 82.4688 201.582 81.2299 204.007 80.9C206.432 80.5701 208.892 81.1737 210.889 82.5888C212.885 84.0038 214.27 86.1246 214.763 88.5219C215.255 90.9193 214.818 93.4142 213.541 95.5018C212.264 97.5893 210.241 99.1137 207.882 99.7664C207.045 99.9967 206.181 100.114 205.312 100.116ZM205.344 81.3159C203.32 81.3143 201.351 81.9827 199.746 83.2169C198.142 84.4511 196.99 86.1818 196.472 88.1389C195.954 90.096 196.097 92.1697 196.881 94.0364C197.665 95.9032 199.044 97.4582 200.804 98.4589C202.025 99.1528 203.388 99.5572 204.789 99.6411C206.191 99.7249 207.592 99.486 208.887 98.9426C210.181 98.3992 211.334 97.5659 212.255 96.5069C213.177 95.4479 213.843 94.1915 214.202 92.8344C214.562 91.4774 214.605 90.0559 214.328 88.6796C214.051 87.3033 213.463 86.0089 212.607 84.8961C211.751 83.7832 210.651 82.8817 209.392 82.261C208.133 81.6403 206.748 81.317 205.344 81.3159Z" fill="#263238"></path><path d="M206.116 92.7385L206.42 93.8463L201.976 95.0721L201.73 94.1913L203.41 91.4219C203.796 90.7818 203.805 90.4549 203.728 90.1689C203.601 89.7149 203.206 89.5287 202.584 89.7149C202.347 89.7688 202.127 89.8797 201.943 90.0379C201.758 90.1961 201.615 90.3969 201.526 90.6229L200.359 90.2551C200.529 89.8202 200.805 89.4342 201.16 89.1316C201.516 88.829 201.941 88.6192 202.398 88.5208C203.705 88.1576 204.763 88.5889 205.058 89.6604C205.217 90.2279 205.199 90.7954 204.604 91.7851L203.605 93.4331L206.116 92.7385Z" fill="#263238"></path><path d="M211.078 91.3766L211.382 92.4843L206.938 93.7056L206.697 92.8248L208.372 90.06C208.758 89.4198 208.767 89.093 208.69 88.8069C208.563 88.3529 208.168 88.1623 207.546 88.3529C207.309 88.4072 207.089 88.5182 206.905 88.6764C206.721 88.8346 206.578 89.0352 206.488 89.2609L205.322 88.8932C205.492 88.4587 205.768 88.0731 206.123 87.7706C206.479 87.4681 206.904 87.258 207.36 87.1589C208.667 86.8003 209.73 87.2316 210.02 88.2985C210.179 88.8705 210.161 89.4334 209.566 90.4277L208.568 92.0757L211.078 91.3766Z" fill="#263238"></path><g opacity="0.3"><path d="M204.109 78.5692C204.009 78.1924 203.565 78.0925 203.338 78.0153C201.522 77.4388 197.154 77.0165 192.61 79.6815C190.694 80.9164 190.38 81.098 188.583 83.5269C187.961 84.3668 186.998 86.0875 186.921 87.1271C186.844 88.1668 187.216 89.2972 188.233 89.5469C189.141 89.7694 190.094 89.1974 190.662 88.4437C191.164 87.646 191.585 86.8005 191.919 85.9195C192.661 84.3927 193.767 83.0715 195.139 82.0717C196.51 81.0719 198.107 80.4242 199.787 80.1855C201.104 80.0084 202.489 80.0856 203.692 79.5181C203.872 79.4563 204.021 79.3279 204.109 79.1594C204.187 78.9703 204.187 78.7584 204.109 78.5692Z" fill="white"></path></g><g opacity="0.3"><path d="M211.909 102.059C211.867 102.13 211.817 102.195 211.759 102.254C211.617 102.438 211.466 102.614 211.305 102.781C210.711 103.409 210.053 103.975 209.344 104.47C208.294 105.216 207.147 105.815 205.934 106.25C203.839 107.009 201.595 107.265 199.383 106.996C197.171 106.728 195.053 105.944 193.2 104.706C192.478 104.23 191.804 103.684 191.188 103.076C190.966 102.867 190.816 102.681 190.707 102.563C190.647 102.507 190.595 102.443 190.553 102.372C190.553 102.372 190.803 102.599 191.252 103.013C191.886 103.589 192.568 104.11 193.29 104.57C194.363 105.251 195.518 105.793 196.727 106.181C198.818 106.843 201.032 107.02 203.201 106.7C205.37 106.38 207.438 105.571 209.249 104.334C209.957 103.852 210.624 103.311 211.242 102.717C211.664 102.295 211.891 102.046 211.909 102.059Z" fill="white"></path></g><g opacity="0.3"><path d="M188.769 100.279C188.828 100.252 188.973 100.416 189.091 100.652C189.209 100.888 189.259 101.106 189.2 101.133C189.141 101.16 189 100.997 188.882 100.761C188.764 100.525 188.714 100.334 188.769 100.279Z" fill="white"></path></g><path d="M202.166 194.284C206.461 189.32 205.919 181.814 200.955 177.518C195.991 173.223 188.485 173.765 184.19 178.729C179.894 183.693 180.436 191.199 185.4 195.494C190.364 199.789 197.87 199.247 202.166 194.284Z" fill="#455A64"></path><path d="M203.269 192.773C203.291 192.713 203.319 192.655 203.351 192.6L203.614 192.101C203.673 191.992 203.742 191.869 203.81 191.733C203.878 191.597 203.937 191.438 204.009 191.279C204.18 190.899 204.324 190.508 204.441 190.108C204.789 189.018 204.971 187.883 204.981 186.739C205.026 183.998 204.116 181.326 202.406 179.183C200.696 177.04 198.293 175.559 195.61 174.994C195.062 174.881 194.507 174.802 193.949 174.758C193.377 174.729 192.803 174.738 192.233 174.785C191.052 174.864 189.892 175.137 188.8 175.594C187.66 176.044 186.6 176.674 185.659 177.46C183.701 179.08 182.324 181.293 181.736 183.766C181.447 184.953 181.35 186.179 181.45 187.398C181.524 188.579 181.792 189.74 182.245 190.834C182.453 191.367 182.699 191.884 182.98 192.382C183.262 192.867 183.579 193.329 183.929 193.767C185.622 195.923 188.013 197.423 190.691 198.009C193.37 198.595 196.168 198.23 198.607 196.977C199.628 196.464 200.566 195.799 201.39 195.007C201.697 194.724 201.983 194.421 202.248 194.099C202.366 193.962 202.479 193.84 202.575 193.717L202.815 193.381L203.147 192.927C203.184 192.873 203.225 192.821 203.269 192.773C203.241 192.832 203.208 192.888 203.17 192.941L202.856 193.395L202.62 193.74C202.529 193.863 202.416 193.99 202.302 194.13C202.041 194.453 201.757 194.756 201.453 195.038C200.634 195.853 199.694 196.536 198.666 197.063C197.162 197.85 195.507 198.307 193.812 198.404C192.117 198.502 190.421 198.236 188.837 197.626C186.837 196.853 185.083 195.556 183.757 193.872C183.402 193.426 183.079 192.955 182.789 192.464C182.5 191.957 182.248 191.429 182.036 190.884C181.814 190.33 181.631 189.761 181.487 189.182C181.357 188.583 181.268 187.976 181.219 187.366C181.115 186.12 181.213 184.866 181.509 183.652C182.099 181.126 183.505 178.866 185.509 177.219C186.468 176.417 187.55 175.777 188.714 175.321C189.828 174.858 191.011 174.58 192.215 174.499C192.796 174.451 193.38 174.443 193.962 174.477C194.539 174.543 195.111 174.647 195.674 174.79C197.77 175.237 199.708 176.237 201.285 177.687C202.535 178.839 203.525 180.246 204.188 181.812C204.851 183.377 205.173 185.067 205.131 186.767C205.113 187.921 204.916 189.065 204.545 190.158C204.423 190.56 204.271 190.953 204.091 191.334C204.014 191.497 203.95 191.656 203.882 191.788L203.673 192.151L203.392 192.641C203.355 192.689 203.314 192.733 203.269 192.773Z" fill="#263238"></path><path d="M199.249 193.623C202.356 192.244 203.758 188.606 202.379 185.498C201 182.391 197.362 180.989 194.255 182.368C191.147 183.748 189.745 187.385 191.125 190.493C192.504 193.6 196.141 195.002 199.249 193.623Z" fill="white"></path><path d="M196.745 194.979C195.195 194.975 193.69 194.457 192.466 193.505C191.242 192.554 190.369 191.223 189.983 189.721C189.597 188.22 189.721 186.633 190.334 185.209C190.947 183.785 192.016 182.605 193.372 181.854C194.729 181.103 196.296 180.824 197.828 181.059C199.36 181.295 200.771 182.033 201.839 183.157C202.907 184.281 203.571 185.727 203.728 187.27C203.885 188.812 203.526 190.363 202.706 191.679C202.076 192.69 201.197 193.525 200.154 194.102C199.111 194.68 197.938 194.982 196.745 194.979ZM196.773 181.427C196.267 181.429 195.763 181.487 195.27 181.6C194.221 181.844 193.248 182.344 192.437 183.054C191.627 183.765 191.005 184.664 190.625 185.672C190.245 186.681 190.12 187.767 190.261 188.835C190.402 189.904 190.804 190.921 191.431 191.797C192.059 192.672 192.893 193.38 193.859 193.856C194.826 194.333 195.895 194.564 196.972 194.528C198.049 194.493 199.1 194.192 200.033 193.653C200.966 193.114 201.752 192.353 202.321 191.438C202.937 190.447 203.277 189.31 203.306 188.143C203.336 186.977 203.053 185.824 202.487 184.803C201.922 183.782 201.094 182.931 200.089 182.338C199.084 181.745 197.94 181.43 196.773 181.427Z" fill="#263238"></path><path d="M196.196 189.041C195.806 189.672 194.961 189.949 193.894 189.286C193.385 188.982 192.977 188.535 192.718 188.001L193.468 187.547C193.64 187.963 193.941 188.313 194.326 188.546C194.78 188.814 195.138 188.805 195.324 188.501C195.511 188.197 195.402 187.911 194.911 187.593L194.516 187.348L194.87 186.776L196.182 186.385L194.589 185.395L195.02 184.701L197.64 186.326L197.29 186.889L195.847 187.343C196.113 187.526 196.299 187.805 196.364 188.122C196.429 188.438 196.369 188.768 196.196 189.041Z" fill="#263238"></path><path d="M199.796 191.779L199.188 191.397L198.698 192.183L197.858 191.661L198.344 190.875L196.328 189.622L196.691 189.041L199.928 187.765L200.836 188.328L197.803 189.563L198.807 190.185L199.261 189.486L200.078 189.994L199.624 190.694L200.232 191.075L199.796 191.779Z" fill="#263238"></path><g opacity="0.3"><path d="M202.484 181.5C202.634 181.264 202.484 180.978 202.398 180.819C201.826 179.584 199.901 177.055 196.264 175.952C194.675 175.544 194.448 175.462 192.255 175.702C191.506 175.784 190.126 176.116 189.531 176.583C188.937 177.051 188.528 177.804 188.891 178.463C189.087 178.742 189.357 178.96 189.671 179.092C189.985 179.225 190.33 179.266 190.666 179.212C191.334 179.086 191.988 178.894 192.619 178.64C193.79 178.285 195.031 178.224 196.232 178.461C197.433 178.699 198.557 179.228 199.506 180.002C200.246 180.61 200.868 181.364 201.776 181.745C201.837 181.781 201.906 181.803 201.977 181.81C202.047 181.817 202.119 181.808 202.186 181.785C202.253 181.762 202.315 181.724 202.366 181.675C202.418 181.626 202.458 181.566 202.484 181.5Z" fill="white"></path></g><g opacity="0.3"><path d="M193.858 197.127C193.858 197.127 193.799 197.127 193.685 197.154C193.572 197.181 193.395 197.177 193.177 197.154C192.551 197.15 191.927 197.082 191.316 196.95C189.271 196.535 187.403 195.502 185.964 193.991C184.525 192.48 183.585 190.563 183.271 188.501C183.17 187.883 183.132 187.256 183.157 186.63C183.157 186.412 183.189 186.24 183.198 186.126C183.207 186.013 183.225 185.949 183.234 185.949C183.238 186.795 183.304 187.638 183.434 188.474C183.785 190.486 184.725 192.35 186.134 193.829C187.543 195.309 189.359 196.338 191.352 196.786C192.177 196.965 193.015 197.079 193.858 197.127Z" fill="white"></path></g><g opacity="0.3"><path d="M183.466 184.002C183.53 184.002 183.525 184.188 183.466 184.365C183.407 184.542 183.293 184.669 183.234 184.646C183.175 184.624 183.18 184.46 183.234 184.283C183.289 184.106 183.416 183.979 183.466 184.002Z" fill="white"></path></g><path d="M175.585 66.309C184.333 57.5612 184.333 43.378 175.585 34.6301C166.837 25.8823 152.654 25.8823 143.906 34.6302C135.158 43.378 135.158 57.5612 143.906 66.309C152.654 75.0569 166.837 75.0569 175.585 66.309Z" fill="#455A64"></path><path d="M179.294 39.5389C179.294 39.5389 179.221 39.439 179.089 39.2347L178.517 38.3267L178.095 37.682C177.927 37.4459 177.723 37.228 177.514 36.9374C177.305 36.6469 177.06 36.379 176.833 36.0658C176.564 35.7485 176.28 35.4455 175.979 35.1578C174.504 33.5815 172.797 32.239 170.917 31.1762C168.437 29.7496 165.706 28.8126 162.872 28.4159L161.678 28.2615C161.274 28.2343 160.866 28.2297 160.448 28.2116C160.03 28.1934 159.617 28.1571 159.195 28.2116L157.91 28.2887L157.261 28.3341L156.612 28.4386L155.291 28.6519C154.837 28.7382 154.419 28.8744 153.974 28.9879C153.523 29.0895 153.078 29.2199 152.644 29.3783C151.748 29.6837 150.873 30.0477 150.024 30.4679C149.598 30.6904 149.153 30.8856 148.73 31.1308L147.477 31.9162C147.273 32.0524 147.051 32.1704 146.851 32.3203L146.261 32.7743C145.866 33.0875 145.453 33.3872 145.071 33.7186C144.299 34.4065 143.574 35.1451 142.901 35.9296L142.388 36.5288C142.302 36.6287 142.216 36.7286 142.134 36.833L141.902 37.1554L140.994 38.4629C140.708 38.9169 140.459 39.3981 140.191 39.8657C140.059 40.1064 139.909 40.3197 139.8 40.5831L139.46 41.314C139.005 42.322 138.618 43.3594 138.302 44.4194L137.921 46.0628L137.825 46.476L137.766 46.8982L137.653 47.7426L137.562 48.578L137.526 49.4361L137.494 50.2987V50.7527C137.494 50.8979 137.494 51.0432 137.517 51.2067L137.626 52.9455C137.716 53.5221 137.807 54.0986 137.902 54.6798C138.793 59.404 141.201 63.7082 144.762 66.9378L146.097 68.0818L147.523 69.0852L147.881 69.3349L148.258 69.5483L149.007 69.9705L149.756 70.3927L150.542 70.7423L151.318 71.0873L151.709 71.2598L152.108 71.396L153.706 71.9318C154.776 72.2175 155.863 72.4313 156.961 72.5719L157.774 72.6809C158.046 72.7172 158.319 72.7081 158.591 72.7263C159.132 72.7263 159.672 72.7762 160.208 72.7717L161.801 72.6718L162.201 72.6491C162.328 72.6491 162.459 72.6082 162.591 72.5901L163.367 72.4675C164.387 72.3019 165.396 72.0714 166.386 71.7774C166.872 71.623 167.344 71.4278 167.817 71.2553L168.52 70.992C168.752 70.9012 168.974 70.7786 169.192 70.6742L170.518 70.0204C170.972 69.7843 171.349 69.5074 171.762 69.2577C172.565 68.7596 173.333 68.2058 174.059 67.6006C174.42 67.3181 174.764 67.0149 175.09 66.6926C175.417 66.3703 175.762 66.0752 176.066 65.7437C176.37 65.4123 176.647 65.0627 176.937 64.7313C177.083 64.5633 177.223 64.3954 177.369 64.2319L177.746 63.7007L178.486 62.6475C178.735 62.307 178.912 61.9256 179.126 61.5715C179.339 61.2174 179.539 60.8542 179.73 60.4955L180.22 59.3968C181.367 56.777 181.999 53.9609 182.081 51.1022C182.158 48.9434 181.909 46.7852 181.341 44.7008C181.249 44.292 181.134 43.8888 180.996 43.4932L180.615 42.4581C180.492 42.1357 180.397 41.8361 180.283 41.5501L179.938 40.8418L179.484 39.8839L179.335 39.5525C179.335 39.5525 179.398 39.6569 179.507 39.8703C179.616 40.0837 179.779 40.4105 179.993 40.8237L180.347 41.5274C180.46 41.7907 180.565 42.0903 180.692 42.4081C180.819 42.7259 180.942 43.0755 181.082 43.4433C181.221 43.8411 181.339 44.2457 181.437 44.6554C182.024 46.7443 182.289 48.9107 182.222 51.0795C182.159 53.9579 181.543 56.7972 180.406 59.4422L179.911 60.55C179.725 60.9132 179.512 61.2673 179.312 61.635C179.112 62.0028 178.917 62.3796 178.667 62.7246L177.923 63.787L177.546 64.3227L177.092 64.8267L176.152 65.83C175.848 66.166 175.503 66.4656 175.171 66.7879C174.847 67.1234 174.501 67.4373 174.136 67.7277C173.402 68.3401 172.627 68.9013 171.816 69.4075C171.403 69.6618 170.999 69.9387 170.568 70.1748L169.251 70.824C169.024 70.933 168.797 71.0555 168.57 71.1509L167.862 71.4187C167.381 71.5913 166.909 71.7865 166.418 71.9454C165.419 72.2445 164.401 72.4781 163.372 72.6445L162.586 72.7717C162.455 72.7717 162.323 72.8171 162.191 72.8307L161.792 72.8579L160.18 72.9578C159.635 72.9578 159.095 72.926 158.546 72.9124C158.273 72.9124 157.997 72.9124 157.724 72.867L156.902 72.758C155.793 72.6182 154.695 72.4028 153.615 72.1134L151.999 71.5731L151.595 71.4369L151.182 71.278L150.397 70.9284L149.607 70.5788L148.848 70.1521L148.086 69.7253L147.704 69.5074L147.346 69.2577L145.902 68.2453L144.54 67.0876C142.772 65.4449 141.262 63.5456 140.059 61.4534C138.904 59.3343 138.077 57.0518 137.607 54.6843C137.512 54.0986 137.421 53.513 137.326 52.9319C137.231 52.3507 137.258 51.756 137.221 51.1703C137.221 51.0251 137.199 50.8798 137.194 50.7163V50.2623L137.226 49.3907L137.262 48.5235L137.376 47.6655L137.489 46.8119L137.548 46.3897L137.644 45.972C137.775 45.4182 137.902 44.8643 138.03 44.3149C138.351 43.2433 138.742 42.1939 139.201 41.1733L139.541 40.4196C139.65 40.1654 139.805 39.9384 139.932 39.6932C140.209 39.2392 140.459 38.7398 140.749 38.2813L141.68 36.9601L141.907 36.6333L142.166 36.3291L142.688 35.7253C143.367 34.9336 144.1 34.1889 144.88 33.4961C145.266 33.1602 145.684 32.8605 146.084 32.5427L146.683 32.0887C146.883 31.9389 147.105 31.8163 147.314 31.6801L148.581 30.8902C149.007 30.6405 149.457 30.4362 149.888 30.2228C150.744 29.7975 151.628 29.4319 152.535 29.1286C152.98 28.9687 153.435 28.8382 153.897 28.7382C154.351 28.6247 154.782 28.4885 155.227 28.4022L156.557 28.1934L157.211 28.089L157.869 28.0436L159.163 27.9664C159.586 27.9346 160.012 27.9664 160.43 27.9891C160.848 28.0118 161.261 28.0163 161.665 28.0436L162.868 28.207C165.719 28.6126 168.465 29.567 170.954 31.0173C172.839 32.094 174.548 33.4537 176.02 35.0488C176.318 35.3454 176.6 35.6576 176.865 35.984L177.541 36.8603C177.75 37.1372 177.95 37.3778 178.113 37.6184L178.526 38.2858C178.772 38.6853 178.958 38.985 179.085 39.1938C179.212 39.4027 179.294 39.5389 179.294 39.5389Z" fill="#263238"></path><path d="M174.113 54.3623C178.201 52.0766 178.981 45.6907 175.854 40.099C172.728 34.5073 166.879 31.8273 162.791 34.113C158.703 36.3987 157.923 42.7847 161.05 48.3764C164.176 53.968 170.025 56.648 174.113 54.3623Z" fill="white"></path><path d="M171.158 56.4958C167.172 56.4958 162.754 53.631 160.108 48.9004C158.46 46.0736 157.744 42.8 158.06 39.5434C158.432 36.5062 159.876 34.1408 162.11 32.8878C164.343 31.6347 167.104 31.6438 169.905 32.9196C172.843 34.3557 175.256 36.6792 176.801 39.5616C180.302 45.8177 179.403 53 174.799 55.5742C173.685 56.1902 172.431 56.5076 171.158 56.4958ZM165.769 32.4338C164.568 32.4238 163.384 32.724 162.332 33.3055C160.221 34.4859 158.864 36.7286 158.51 39.6206C158.207 42.7818 158.906 45.9582 160.507 48.7006C163.88 54.7343 170.196 57.6535 174.581 55.2019C178.967 52.7503 179.784 45.8449 176.397 39.8067C174.897 37.0086 172.556 34.752 169.705 33.3554C168.474 32.7619 167.131 32.4398 165.764 32.4111L165.769 32.4338Z" fill="#263238"></path><path d="M166.191 41.55L170.25 48.7868L169.015 49.486L165.71 43.584L164.652 44.1742L163.899 42.8122L166.191 41.55Z" fill="#263238"></path><path d="M174.336 44.6963L175.099 46.0583L171.099 48.292L170.509 47.216L171.076 43.4387C171.212 42.8853 171.142 42.3016 170.881 41.7952C170.832 41.6668 170.755 41.551 170.655 41.4568C170.555 41.3625 170.435 41.2922 170.304 41.2511C170.173 41.21 170.034 41.1992 169.898 41.2196C169.762 41.2399 169.632 41.2908 169.519 41.3685C169.284 41.5042 169.094 41.7052 168.972 41.947C168.849 42.1888 168.8 42.461 168.829 42.7305L167.526 42.4172C167.486 41.9106 167.593 41.4031 167.834 40.956C168.076 40.5089 168.442 40.1413 168.888 39.8975C170.068 39.2347 171.317 39.6251 172.066 40.9372C172.542 41.781 172.681 42.7734 172.456 43.7157L172.12 45.9857L174.336 44.6963Z" fill="#263238"></path><g opacity="0.3"><path d="M159.971 30.5724C159.717 30.1184 159.1 30.1184 158.773 30.1184C156.217 29.9322 150.288 30.8039 145.153 35.7979C143.024 38.0679 142.67 38.3903 141.067 42.1812C140.518 43.4932 139.805 46.0719 140.041 47.4703C140.277 48.8686 141.135 50.2397 142.556 50.2351C143.836 50.2351 144.903 49.1728 145.403 47.9924C145.902 46.812 145.993 45.509 146.247 44.2559C146.73 41.9902 147.764 39.8786 149.258 38.1085C150.753 36.3385 152.661 34.9647 154.814 34.109C156.494 33.4553 158.351 33.1012 159.754 31.9662C159.975 31.8248 160.137 31.6065 160.208 31.3533C160.222 31.214 160.208 31.0732 160.168 30.9391C160.127 30.8051 160.061 30.6804 159.971 30.5724Z" fill="white"></path></g><g opacity="0.3"><path d="M177.895 59.02C177.86 59.1263 177.813 59.2283 177.755 59.3242C177.655 59.5149 177.523 59.8145 177.301 60.1686C176.71 61.1842 176.023 62.1405 175.249 63.0243C172.687 65.9782 169.293 68.0887 165.511 69.0788C161.729 70.0688 157.736 69.8923 154.056 68.5722C152.951 68.1822 151.886 67.685 150.878 67.0876C150.515 66.8878 150.256 66.6926 150.07 66.5746C149.974 66.5192 149.884 66.4538 149.802 66.3794C149.904 66.4224 150.003 66.474 150.097 66.5337C150.288 66.6381 150.551 66.8197 150.923 66.9877C151.941 67.5447 153.004 68.014 154.101 68.3906C157.76 69.6436 161.704 69.8014 165.451 68.8446C167.496 68.2976 169.438 67.4237 171.203 66.2568C173.625 64.6548 175.674 62.5524 177.214 60.0915C177.441 59.7464 177.582 59.4604 177.7 59.2743C177.758 59.1839 177.823 59.0988 177.895 59.02Z" fill="white"></path></g><g opacity="0.3"><path d="M146.783 64.2092C146.833 64.1684 147.06 64.3545 147.296 64.6269C147.532 64.8993 147.677 65.1536 147.627 65.199C147.577 65.2444 147.35 65.0537 147.114 64.7813C146.878 64.5089 146.733 64.2501 146.783 64.2092Z" fill="white"></path></g><path d="M41.1772 160.832C50.5472 155.57 53.8769 143.708 48.6145 134.338C43.352 124.968 31.4901 121.638 22.1201 126.901C12.7502 132.163 9.42042 144.025 14.6829 153.395C19.9454 162.765 31.8073 166.095 41.1772 160.832Z" fill="#455A64"></path><path d="M14.6687 134.384C14.6687 134.384 14.7187 134.293 14.8276 134.111C14.9366 133.93 15.1 133.657 15.3089 133.322L15.6675 132.74C15.8128 132.532 15.9853 132.318 16.1669 132.082L16.7526 131.319C16.9825 131.035 17.228 130.764 17.4881 130.507C18.7659 129.118 20.2497 127.935 21.8873 126.997C24.0512 125.739 26.4374 124.91 28.9153 124.555L29.964 124.396C30.3181 124.369 30.6768 124.364 31.04 124.35C31.4032 124.337 31.7709 124.301 32.1432 124.35L33.2646 124.419L33.8366 124.455L34.4041 124.546L35.5618 124.727C35.9477 124.805 36.3291 124.923 36.7195 125.018C37.1146 125.109 37.5042 125.223 37.8863 125.358C38.6726 125.624 39.4401 125.943 40.1835 126.312C40.5604 126.502 40.9508 126.675 41.3231 126.888L42.4172 127.574C42.5988 127.692 42.7895 127.801 42.9666 127.933L43.4887 128.337C43.8337 128.609 44.1969 128.868 44.5329 129.163C45.2123 129.764 45.8494 130.412 46.4397 131.101C47.0522 131.801 47.615 132.543 48.124 133.322C48.3782 133.721 48.578 134.139 48.8368 134.552C48.9457 134.761 49.0819 134.96 49.1773 135.178L49.4678 135.837C49.8692 136.721 50.2105 137.631 50.4893 138.561C50.6028 139.042 50.7118 139.519 50.8253 140.004L50.907 140.368L50.9615 140.735L51.0614 141.48L51.1567 142.224L51.1885 142.978L51.2157 143.736V144.118V144.494L51.1204 146.024C51.0387 146.533 50.9615 147.041 50.8798 147.55C50.0981 151.705 47.9811 155.491 44.8507 158.332L43.6793 159.34L42.4218 160.221L42.1085 160.439L41.7771 160.625L41.1188 160.997L40.4605 161.37L39.7704 161.674L39.0894 161.978L38.7444 162.128L38.3948 162.246L36.9874 162.7C36.0481 162.953 35.0924 163.141 34.1272 163.263L33.4144 163.358C33.1783 163.39 32.9604 163.381 32.7016 163.394C32.2476 163.394 31.7528 163.44 31.2806 163.435C30.3509 163.407 29.4241 163.316 28.5067 163.163C27.6086 163.01 26.7215 162.8 25.8508 162.532C25.424 162.396 25.0154 162.223 24.5977 162.078L23.9803 161.846C23.7805 161.765 23.5898 161.656 23.3901 161.56L22.246 160.997C21.8737 160.793 21.5196 160.543 21.1609 160.33C20.4555 159.891 19.782 159.402 19.1452 158.868C18.8256 158.617 18.5224 158.345 18.2372 158.055C17.9512 157.774 17.647 157.511 17.3837 157.22L16.6209 156.312L16.2487 155.858L15.9172 155.404L15.2726 154.496C15.0501 154.196 14.9003 153.86 14.7096 153.547C14.5189 153.234 14.3509 152.921 14.1875 152.603C14.0241 152.285 13.9015 151.958 13.7607 151.64C12.7663 149.344 12.2237 146.878 12.1627 144.376C12.1047 142.491 12.3359 140.608 12.8482 138.792C12.9311 138.436 13.0342 138.084 13.1569 137.739L13.4974 136.831C13.6064 136.554 13.6972 136.291 13.8016 136.064L14.1058 135.451C14.2919 135.092 14.4327 134.82 14.528 134.629C14.6233 134.438 14.6778 134.348 14.6778 134.348C14.6778 134.348 14.6415 134.447 14.5507 134.638L14.1512 135.473C14.0604 135.655 13.965 135.859 13.8561 136.086C13.7471 136.313 13.6699 136.577 13.5655 136.854L13.2341 137.762C13.1155 138.105 13.0169 138.455 12.939 138.81C12.4415 140.621 12.2226 142.496 12.2898 144.372C12.3596 146.855 12.9084 149.302 13.906 151.577L14.3328 152.53C14.4962 152.839 14.6778 153.148 14.8549 153.461C15.0319 153.774 15.1954 154.101 15.4133 154.396C15.6312 154.691 15.8401 155.005 16.0534 155.304L16.3849 155.758L16.7571 156.19C17.0068 156.48 17.2565 156.775 17.5153 157.07C17.7741 157.365 18.0783 157.615 18.3598 157.892C18.6448 158.179 18.9481 158.448 19.2678 158.696C19.8989 159.223 20.5664 159.706 21.2654 160.139C21.624 160.353 21.9691 160.593 22.3413 160.798L23.4945 161.365C23.6897 161.456 23.8759 161.56 24.0756 161.642L24.6885 161.869C25.1017 162.019 25.5057 162.187 25.9279 162.323C26.7887 162.58 27.6652 162.78 28.5521 162.922C29.4531 163.071 30.3632 163.159 31.2761 163.186C31.7301 163.186 32.2113 163.154 32.6789 163.145C32.915 163.145 33.1329 163.145 33.3872 163.104L34.0909 163.013C35.0448 162.888 35.9895 162.702 36.9193 162.455L38.2813 162.001L38.6309 161.887L38.9668 161.737L39.6433 161.438L40.3243 161.134L40.9735 160.766L41.6273 160.398L41.9541 160.212L42.2629 159.999L43.5023 159.127C43.8882 158.8 44.2741 158.464 44.66 158.133C46.1787 156.722 47.4765 155.09 48.5099 153.293C49.4978 151.47 50.2078 149.51 50.6165 147.477C50.6982 146.973 50.7754 146.474 50.8571 145.975C50.9388 145.475 50.9161 144.962 50.9479 144.463V144.086V143.709L50.9206 142.96L50.8889 142.215L50.7935 141.48L50.6982 140.744L50.6437 140.381L50.562 140.023L50.2351 138.597C49.9577 137.677 49.6211 136.776 49.2272 135.9L48.9412 135.246C48.8459 135.033 48.7142 134.833 48.6007 134.625C48.3646 134.22 48.1467 133.803 47.9015 133.412C47.3987 132.641 46.8435 131.906 46.2399 131.21C45.6549 130.529 45.0255 129.888 44.3558 129.29C44.0244 128.999 43.6657 128.745 43.3252 128.473L42.8077 128.069C42.6351 127.942 42.4445 127.837 42.2674 127.719L41.1823 127.034C40.8146 126.82 40.4287 126.652 40.0564 126.462C39.3221 126.094 38.5637 125.777 37.7864 125.513C37.4089 125.377 37.0239 125.263 36.6333 125.172C36.2474 125.077 35.8705 124.959 35.4892 124.882L34.3451 124.696L33.7776 124.605L33.2146 124.568L32.1023 124.5C31.7394 124.482 31.3757 124.482 31.0127 124.5C30.6495 124.5 30.2954 124.5 29.9413 124.546L28.9062 124.677C26.4469 125.02 24.0765 125.833 21.9237 127.07C20.2908 127.992 18.8075 129.157 17.5244 130.525C17.267 130.786 17.0245 131.062 16.798 131.351L16.2214 132.114C16.0398 132.35 15.8628 132.568 15.7175 132.763L15.3497 133.34L14.8503 134.116C14.7368 134.279 14.6687 134.384 14.6687 134.384Z" fill="#263238"></path><path d="M30.5238 142.035C33.2402 137.176 32.5629 131.628 29.0109 129.642C25.4589 127.656 20.3774 129.985 17.6609 134.843C14.9444 139.702 15.6218 145.25 19.1738 147.236C22.7257 149.222 27.8073 146.893 30.5238 142.035Z" fill="white"></path><path d="M21.7421 149.13C20.6313 149.139 19.5368 148.863 18.5641 148.326C14.5552 146.084 13.7698 139.832 16.798 134.384C18.142 131.874 20.2418 129.85 22.7999 128.6C25.2288 127.488 27.6441 127.479 29.6099 128.573C31.5757 129.667 32.8287 131.719 33.142 134.384C33.4158 137.219 32.7916 140.068 31.3578 142.529C29.056 146.642 25.2152 149.13 21.7421 149.13ZM17.2021 134.602C14.2874 139.832 14.982 145.807 18.7865 147.931C22.591 150.056 28.0481 147.523 30.9719 142.293C32.3536 139.914 32.9539 137.162 32.688 134.425C32.3793 131.923 31.208 129.98 29.3829 128.977C27.5578 127.973 25.2969 127.973 22.9951 129.022C20.5311 130.229 18.508 132.179 17.2111 134.597L17.2021 134.602Z" fill="#263238"></path><path d="M22.5502 139.246C21.7738 140.259 20.5571 140.726 19.3722 139.809C18.7825 139.366 18.3807 138.718 18.2463 137.993L19.404 137.276C19.4345 137.554 19.5206 137.823 19.657 138.067C19.7935 138.311 19.9776 138.525 20.1985 138.697C20.2936 138.785 20.4066 138.852 20.5297 138.893C20.6529 138.934 20.7835 138.948 20.9125 138.934C21.0416 138.921 21.1662 138.879 21.278 138.813C21.3898 138.747 21.4861 138.658 21.5605 138.552C21.901 138.098 21.9146 137.644 21.1519 137.063L20.085 136.245L22.7636 133.19L25.315 135.142L24.4842 136.2L22.7409 134.838L21.8329 135.873L22.1734 136.136C23.4173 137.108 23.3265 138.229 22.5502 139.246Z" fill="#263238"></path><path d="M25.4921 142.633L24.6658 143.714L21.4878 141.294L22.1416 140.436L25.3514 139.587C25.8395 139.504 26.2813 139.248 26.5953 138.865C26.6802 138.783 26.7453 138.682 26.7857 138.571C26.8261 138.46 26.8407 138.341 26.8285 138.223C26.8162 138.106 26.7774 137.992 26.715 137.892C26.6526 137.792 26.5682 137.707 26.4682 137.644C26.2833 137.504 26.0619 137.421 25.8308 137.404C25.5996 137.387 25.3685 137.437 25.1652 137.548L24.9382 136.391C25.3258 136.182 25.7656 136.091 26.2041 136.128C26.6426 136.165 27.0609 136.329 27.408 136.599C28.3432 137.312 28.4613 138.438 27.6668 139.478C27.1631 140.143 26.427 140.594 25.6056 140.74L23.6943 141.248L25.4921 142.633Z" fill="#263238"></path><g opacity="0.3"><path d="M31.4577 126.58C31.6801 126.18 32.2158 126.189 32.4973 126.167C34.7219 126.008 39.8703 126.766 44.324 131.101C46.1763 133.058 46.4851 133.371 47.8561 136.649C48.3101 137.789 48.9503 140.027 48.7641 141.244C48.578 142.461 47.8107 143.65 46.5759 143.646C45.4636 143.646 44.5374 142.738 44.1016 141.698C43.6657 140.658 43.584 139.541 43.357 138.47C42.9395 136.509 42.0461 134.681 40.7556 133.147C39.4651 131.612 37.8171 130.419 35.9568 129.671C34.4995 129.099 32.8878 128.795 31.6665 127.805C31.4795 127.681 31.3453 127.492 31.2897 127.274C31.2692 127.153 31.2736 127.029 31.3025 126.91C31.3313 126.79 31.3841 126.678 31.4577 126.58Z" fill="white"></path></g><g opacity="0.3"><path d="M15.89 151.309C15.9525 151.383 16.0059 151.463 16.0489 151.55C16.1533 151.709 16.2759 151.963 16.4757 152.258C17.0098 153.117 17.6174 153.928 18.2917 154.682C19.2917 155.8 20.4333 156.783 21.6876 157.606C24.7649 159.658 28.4421 160.617 32.1296 160.33C34.6451 160.152 37.093 159.435 39.3073 158.228C39.6251 158.065 39.8567 157.91 40.0246 157.819C40.1056 157.766 40.1924 157.722 40.2834 157.688C40.2108 157.751 40.1334 157.809 40.0519 157.86C39.893 157.965 39.666 158.133 39.3527 158.314C38.4732 158.833 37.5458 159.267 36.5833 159.608C35.1531 160.118 33.6616 160.436 32.1477 160.553C29.5302 160.753 26.9021 160.338 24.4734 159.342C22.0447 158.345 19.8826 156.795 18.16 154.814C17.4884 154.045 16.8924 153.214 16.3803 152.331C16.1942 152.022 16.0807 151.763 15.9899 151.595C15.9487 151.503 15.9153 151.407 15.89 151.309Z" fill="white"></path></g><g opacity="0.3"><path d="M42.9166 155.799C42.962 155.845 42.8394 156.067 42.6397 156.308C42.4399 156.548 42.2311 156.703 42.1857 156.657C42.1403 156.612 42.2583 156.389 42.4626 156.153C42.6669 155.917 42.8667 155.758 42.9166 155.799Z" fill="white"></path></g><path d="M122.153 71.0555L123.166 71.0237C128.091 70.8699 132.894 72.5763 136.619 75.8035C140.343 79.0306 142.716 83.5418 143.264 88.4392C144.327 97.8778 145.375 108.324 145.475 113.409C145.675 123.933 135.206 125.899 135.206 125.899L135.469 130.18C135.572 131.861 135.342 133.545 134.792 135.137C134.242 136.728 133.383 138.196 132.264 139.454C131.145 140.713 129.789 141.738 128.273 142.47C126.756 143.203 125.11 143.628 123.429 143.723C120.074 143.91 116.78 142.769 114.26 140.546C111.74 138.323 110.197 135.198 109.963 131.846L107.239 92.7612C105.964 81.8653 111.23 72.0407 122.153 71.0555Z" fill="#FFBF9D"></path><path d="M135.292 125.871C135.292 125.871 128.591 126.484 121.386 122.271C121.386 122.271 124.864 129.735 135.328 128.459L135.292 125.871Z" fill="#FF9A6C"></path><path d="M138.574 97.5464C138.591 97.9383 138.453 98.321 138.191 98.6128C137.929 98.9047 137.563 99.0824 137.172 99.1081C136.981 99.1288 136.788 99.1112 136.605 99.0563C136.421 99.0015 136.25 98.9105 136.102 98.7887C135.954 98.6669 135.832 98.5167 135.743 98.3471C135.653 98.1774 135.599 97.9916 135.583 97.8006C135.566 97.4094 135.703 97.0274 135.964 96.7357C136.226 96.444 136.59 96.2657 136.981 96.2389C137.172 96.2182 137.365 96.2358 137.549 96.2906C137.733 96.3454 137.904 96.4363 138.052 96.5581C138.201 96.6798 138.323 96.8299 138.413 96.9996C138.502 97.1693 138.557 97.3552 138.574 97.5464Z" fill="black"></path><path d="M141.167 93.6466C140.985 93.8509 139.805 93.0428 138.207 93.0973C136.609 93.1518 135.433 94.0053 135.251 93.8055C135.16 93.7238 135.342 93.3515 135.846 92.9702C136.529 92.464 137.352 92.1817 138.202 92.162C139.043 92.1322 139.871 92.3708 140.567 92.843C141.076 93.2062 141.258 93.5558 141.167 93.6466Z" fill="black"></path><path d="M124.396 98.1184C124.412 98.5098 124.274 98.8921 124.012 99.1832C123.75 99.4742 123.384 99.651 122.993 99.6756C122.803 99.6969 122.61 99.6799 122.426 99.6256C122.243 99.5712 122.072 99.4807 121.924 99.3592C121.776 99.2378 121.653 99.0879 121.564 98.9185C121.475 98.7491 121.421 98.5634 121.404 98.3726C121.389 97.9818 121.526 97.6003 121.787 97.3089C122.048 97.0174 122.412 96.8389 122.802 96.8109C122.993 96.7896 123.187 96.8067 123.371 96.8613C123.555 96.9158 123.726 97.0067 123.875 97.1286C124.023 97.2504 124.146 97.4008 124.236 97.5708C124.325 97.7408 124.38 97.927 124.396 98.1184Z" fill="black"></path><path d="M125.304 94.432C125.122 94.6363 123.942 93.8282 122.344 93.8872C120.746 93.9462 119.57 94.7952 119.388 94.5909C119.298 94.5092 119.475 94.1369 119.983 93.7556C120.666 93.2494 121.489 92.9671 122.339 92.9474C123.18 92.9176 124.009 93.1562 124.705 93.6284C125.2 94.0098 125.381 94.3594 125.304 94.432Z" fill="black"></path><path d="M131.533 106.236C131.533 106.145 132.523 105.936 134.143 105.678C134.552 105.623 134.942 105.528 135.001 105.224C135.021 104.796 134.912 104.372 134.688 104.007C134.271 103.023 133.83 101.99 133.367 100.906C131.551 96.4841 130.189 92.843 130.371 92.7704C130.552 92.6977 132.187 96.2253 134.003 100.643C134.448 101.732 134.87 102.774 135.269 103.766C135.442 104.22 135.723 104.756 135.537 105.383C135.481 105.529 135.393 105.661 135.279 105.768C135.165 105.876 135.028 105.957 134.879 106.004C134.652 106.076 134.417 106.117 134.18 106.127C132.568 106.3 131.542 106.34 131.533 106.236Z" fill="black"></path><path d="M125.508 88.1032C125.363 88.5572 123.742 88.3893 121.854 88.6753C119.965 88.9613 118.449 89.5288 118.185 89.1293C118.067 88.9431 118.321 88.5209 118.925 88.076C119.734 87.5286 120.657 87.1729 121.624 87.036C122.591 86.8992 123.576 86.9847 124.505 87.286C125.209 87.5584 125.572 87.8899 125.508 88.1032Z" fill="black"></path><path d="M140.427 88.9839C140.154 89.3608 139.028 89.0157 137.703 89.0384C136.377 89.0611 135.238 89.3653 134.979 88.9885C134.856 88.8069 135.024 88.4301 135.51 88.0805C136.164 87.6454 136.931 87.4132 137.716 87.4132C138.502 87.4132 139.269 87.6454 139.923 88.0805C140.377 88.4346 140.545 88.8069 140.427 88.9839Z" fill="black"></path><path d="M142.102 83.6403C142.102 83.6403 139.124 77.1436 135.9 75.7044C131.996 73.9656 130.475 78.2377 126.78 77.3297C123.084 76.4217 119.357 74.7465 115.702 77.6975C111.698 80.9254 113.686 83.0411 113.582 87.7173C113.128 106.667 109.863 112.124 108.588 103.244C108.452 102.273 105.718 101.578 105.187 97.4692C104.497 92.1347 104.089 85.6652 105.165 81.8153C106.073 78.5828 107.825 76.3173 111.017 73.7749C116.061 69.7661 123.152 69.4619 127.983 69.7979C132.813 70.1338 142.284 75.3639 142.102 83.6403Z" fill="black"></path><path d="M109.26 102.935C109.235 102.549 109.131 102.172 108.956 101.827C108.78 101.482 108.537 101.176 108.239 100.928C107.942 100.68 107.598 100.495 107.227 100.384C106.856 100.274 106.466 100.24 106.082 100.284C104.129 100.529 101.996 101.714 102.236 105.759C102.69 112.942 109.809 111.003 109.809 110.799C109.809 110.594 109.478 105.941 109.26 102.935Z" fill="#FFBF9D"></path><path d="M108.084 108.193C108.052 108.193 107.966 108.293 107.757 108.402C107.475 108.543 107.15 108.57 106.849 108.479C106.073 108.247 105.355 107.085 105.237 105.791C105.181 105.176 105.262 104.556 105.473 103.975C105.527 103.746 105.635 103.534 105.788 103.356C105.942 103.178 106.136 103.04 106.354 102.954C106.496 102.907 106.649 102.911 106.788 102.965C106.927 103.018 107.043 103.119 107.117 103.249C107.226 103.444 107.189 103.594 107.226 103.603C107.262 103.612 107.371 103.471 107.298 103.176C107.248 102.994 107.138 102.833 106.985 102.722C106.777 102.587 106.525 102.538 106.281 102.586C105.991 102.662 105.724 102.813 105.508 103.022C105.292 103.231 105.133 103.492 105.047 103.78C104.779 104.421 104.673 105.118 104.738 105.809C104.879 107.253 105.705 108.56 106.763 108.796C106.959 108.839 107.162 108.837 107.357 108.791C107.553 108.746 107.736 108.658 107.893 108.533C108.079 108.37 108.111 108.206 108.084 108.193Z" fill="#FF9A6C"></path><path d="M143.827 75.9088C142.747 75.0507 141.23 74.8918 140.159 74.0247C138.202 72.4448 138.211 68.9671 135.891 68.0001C134.529 67.4235 132.94 68.0455 131.465 67.8548C129.072 67.5416 128.196 65.7074 124.555 65.5848C119.829 65.4486 118.199 68.9353 118.199 68.9353C117.339 68.5118 116.382 68.3228 115.426 68.3874C114.469 68.452 113.546 68.7678 112.751 69.3031C110.572 70.6969 110.354 73.5934 110.354 73.5934C110.354 73.5934 109.618 73.1939 107.298 74.9281C105.827 76.0314 104.574 78.4603 104.011 80.2082C103.162 82.8141 104.234 85.6198 105.287 88.1486C105.855 89.5106 106.567 91.0315 107.961 91.54C109.659 92.162 111.593 90.8726 112.297 89.211C113.001 87.5493 114.113 85.8832 114.966 84.2896C116.451 81.5202 117.967 78.9415 116.828 77.1164C118.479 76.6174 120.247 76.6539 121.876 77.2208C123.506 77.8065 124.918 78.9006 126.534 79.5226C128.151 80.1446 130.23 80.1628 131.374 78.8598C132.146 80.8755 135.119 81.5838 136.731 80.1673C137.957 82.3193 140.962 83.3725 143.114 82.1513C145.266 80.93 145.766 77.4478 143.827 75.9088Z" fill="black"></path><path d="M104.624 86.4643C104.692 86.4326 104.96 87.1045 105.414 88.126C105.656 88.7145 106.051 89.2273 106.558 89.6106C107.233 89.985 108.022 90.0966 108.774 89.9238C109.553 89.8023 110.295 89.5109 110.949 89.0703C111.477 88.6901 111.96 88.2498 112.388 87.7582C113.132 86.9138 113.568 86.3508 113.623 86.3962C113.37 86.9653 113.032 87.4921 112.619 87.958C112.203 88.5 111.717 88.9853 111.176 89.4017C110.482 89.896 109.683 90.2209 108.842 90.3506C107.985 90.5397 107.088 90.3935 106.336 89.942C105.781 89.5073 105.364 88.9204 105.137 88.2531C104.891 87.6811 104.718 87.08 104.624 86.4643Z" fill="#7765F3"></path><path d="M104.751 92.0076C105.176 92.3476 105.647 92.6257 106.15 92.8339C106.7 93.0194 107.284 93.0844 107.861 93.0245C108.567 92.9393 109.246 92.7006 109.85 92.3254C110.953 91.598 111.896 90.6543 112.624 89.5514C112.913 89.0721 113.253 88.6247 113.636 88.2167C113.46 88.7525 113.204 89.2589 112.878 89.7194C112.19 90.9178 111.229 91.9367 110.072 92.6931C109.412 93.1011 108.666 93.3483 107.893 93.415C107.261 93.4657 106.625 93.3629 106.041 93.1153C105.037 92.6704 104.711 92.0167 104.751 92.0076Z" fill="#7765F3"></path><path d="M104.906 96.1345C105.345 96.3921 105.811 96.6006 106.295 96.7565C106.887 96.8875 107.5 96.8942 108.094 96.7762C108.689 96.6582 109.253 96.4181 109.75 96.071C110.761 95.3544 111.632 94.4589 112.32 93.4287C112.878 92.6478 113.228 92.1529 113.282 92.1893C113.116 92.6915 112.876 93.166 112.569 93.5967C111.928 94.7217 111.044 95.6896 109.981 96.4296C109.375 96.8301 108.689 97.0935 107.97 97.2014C107.38 97.2835 106.78 97.2307 106.213 97.047C105.237 96.702 104.874 96.1527 104.906 96.1345Z" fill="#7765F3"></path><path d="M126.879 108.769C126.621 109.546 126.468 110.354 126.425 111.171C126.303 112.015 126.648 112.624 127.152 113.309C127.428 113.655 127.777 113.936 128.174 114.132C128.571 114.328 129.006 114.435 129.449 114.444H129.476C130.277 114.463 131.059 114.195 131.679 113.688C132.299 113.181 132.718 112.468 132.859 111.679L133.19 109.909C131.501 109.414 127.002 108.887 126.879 108.769Z" fill="#FF9A6C"></path><path d="M131.165 113.977C131.165 113.94 130.952 113.977 130.589 114.018C130.085 114.087 129.573 114.078 129.072 113.99C128.347 113.855 127.7 113.453 127.256 112.864C126.736 112.126 126.502 111.224 126.598 110.326C126.639 109.82 126.783 109.328 127.02 108.878L126.798 108.983C128.405 109.269 129.808 109.5 130.816 109.645C131.348 109.763 131.892 109.816 132.436 109.804C131.933 109.591 131.405 109.439 130.866 109.35C129.871 109.132 128.477 108.846 126.875 108.538L126.725 108.51L126.648 108.647C126.371 109.144 126.206 109.695 126.162 110.263C126.053 111.27 126.33 112.281 126.938 113.091C127.455 113.742 128.204 114.166 129.027 114.276C129.562 114.343 130.105 114.304 130.625 114.163C130.816 114.141 131.001 114.078 131.165 113.977Z" fill="black"></path><path d="M109.963 131.837C109.963 131.837 122.053 140.658 123.969 140.095C125.885 139.532 135.319 131.837 135.319 131.837L151.082 147.096L157.084 217.062H99.2035L100.815 158.727L109.963 131.837Z" fill="#F5F5F5"></path><path d="M178.572 136.495L177.718 139.927C177.718 139.927 159.699 134.025 156.834 134.28C153.97 134.534 152.258 150.955 152.258 150.955C152.258 150.955 161.406 163.776 161.765 163.69C162.123 163.603 178.98 161.715 186.689 160.189C194.398 158.664 199.156 156.335 200.409 150.147C201.662 143.959 200.409 139.478 199.955 139.119C199.501 138.761 196.904 137.508 196.904 137.508L178.572 136.495Z" fill="#7765F3"></path><path d="M60.382 187.792C60.382 187.792 58.112 190.553 58.112 192.786C58.112 195.02 58.112 200.65 59.928 204.795C61.744 208.94 60.9904 209.362 64.1774 210.851C66.2152 211.758 68.4311 212.194 70.6606 212.127C70.6606 212.127 79.8314 208.654 81.7472 203.873C83.6631 199.093 88.53 189.114 88.53 189.114V137.744C88.53 137.744 78.4376 141.376 75.8861 150.07C73.3346 158.764 67.4916 181.309 67.4916 181.309L60.382 187.792Z" fill="#7765F3"></path><path d="M109.868 127.011L104.738 132.831L88.53 137.744L87.79 188.537L86.4734 217.062H109.868C109.868 217.062 110.949 209.898 112.71 199.061C114.472 188.224 116.097 179.289 116.369 173.464C116.642 167.639 118.943 161.683 116.369 154.637C113.795 147.591 109.868 136.895 110.29 133.24C110.547 131.156 110.404 129.042 109.868 127.011Z" fill="#7765F3"></path><path d="M115.234 164.761C115.227 164.728 115.227 164.694 115.234 164.661C115.234 164.584 115.266 164.489 115.284 164.371C115.334 164.121 115.389 163.744 115.448 163.258C115.85 159.808 115.2 156.317 113.582 153.243C112.974 152.171 112.299 151.139 111.561 150.151C111.181 149.606 110.857 149.024 110.594 148.413C110.316 147.771 110.196 147.072 110.245 146.374L110.376 146.501C109.747 146.554 109.116 146.421 108.56 146.12C108.118 145.894 107.731 145.573 107.427 145.181C107.123 144.789 106.908 144.334 106.799 143.85L106.981 143.927C105.679 144.788 104.574 145.914 103.739 147.232L103.498 147.618L103.535 147.164C103.893 143.142 104.198 139.696 104.411 137.235C104.529 136.032 104.62 135.07 104.683 134.389C104.72 134.071 104.747 133.821 104.765 133.63C104.773 133.543 104.786 133.457 104.806 133.372C104.813 133.459 104.813 133.547 104.806 133.635C104.806 133.826 104.779 134.089 104.761 134.393C104.711 135.079 104.642 136.041 104.552 137.244C104.356 139.705 104.098 143.146 103.762 147.182L103.557 147.114C104.405 145.764 105.53 144.61 106.858 143.727L107.003 143.632L107.035 143.805C107.137 144.257 107.336 144.681 107.619 145.048C107.902 145.415 108.262 145.716 108.674 145.929C109.189 146.21 109.774 146.333 110.358 146.283H110.499V146.424C110.453 147.086 110.566 147.748 110.826 148.358C111.083 148.954 111.399 149.523 111.77 150.056L112.846 151.613L113.346 152.39L113.8 153.175C114.771 155.03 115.387 157.05 115.616 159.132C115.779 160.519 115.761 161.921 115.561 163.304C115.514 163.677 115.444 164.047 115.352 164.412L115.284 164.698C115.269 164.72 115.252 164.741 115.234 164.761Z" fill="black"></path><path d="M165.892 182.381C165.892 181.845 163.708 151.922 163.708 151.922L157.502 134.27C157.502 134.27 141.92 132.277 141.653 132.277C141.385 132.277 136.577 127.011 136.577 127.011C136.577 127.011 131.324 136.999 130.434 142.642C129.544 148.285 129.186 151.867 130.434 157.924C131.683 163.98 137.29 182.054 138.356 188.287C139.423 194.521 144.072 212.572 144.517 217.293L167.903 217.062C167.19 210.47 165.892 182.912 165.892 182.381Z" fill="#7765F3"></path><path d="M162.6 144.372C162.638 144.498 162.666 144.627 162.682 144.758C162.732 145.035 162.791 145.407 162.873 145.875C162.954 146.342 163.04 146.955 163.131 147.65C163.222 148.344 163.331 149.13 163.426 150.002C163.84 153.493 164.284 158.328 164.684 163.676C165.083 169.024 165.374 173.868 165.565 177.378C165.646 179.117 165.715 180.533 165.764 181.536C165.764 181.99 165.792 182.385 165.801 182.667C165.813 182.798 165.813 182.93 165.801 183.062C165.775 182.933 165.76 182.803 165.755 182.671C165.731 182.39 165.704 182.013 165.674 181.541C165.606 180.538 165.51 179.126 165.397 177.391C165.165 173.882 164.852 169.038 164.448 163.694C164.044 158.351 163.631 153.511 163.258 150.02C163.177 149.148 163.077 148.358 163 147.663C162.922 146.969 162.85 146.374 162.782 145.888C162.714 145.403 162.673 145.044 162.636 144.767C162.616 144.636 162.604 144.504 162.6 144.372Z" fill="black"></path><path d="M141.966 133.022C141.971 133.055 141.971 133.089 141.966 133.122C141.966 133.199 141.934 133.29 141.916 133.408C141.861 133.676 141.793 134.043 141.702 134.507C141.516 135.464 141.248 136.858 140.981 138.593C140.713 140.327 140.377 142.406 140.009 144.722C139.641 147.037 139.21 149.602 138.611 152.29L138.561 152.526L138.406 152.335C136.95 150.546 134.908 149.33 132.641 148.903L132.772 148.798C132.366 152.745 132.503 156.729 133.181 160.639C133.435 162.101 133.703 163.254 133.898 164.044L134.134 164.952C134.164 165.056 134.187 165.162 134.202 165.27C134.156 165.171 134.119 165.067 134.093 164.961C134.03 164.757 133.93 164.461 133.821 164.053C133.599 163.267 133.308 162.114 133.036 160.652C132.306 156.733 132.141 152.729 132.545 148.762V148.64H132.668C134.307 148.943 135.844 149.655 137.135 150.71C137.665 151.139 138.147 151.623 138.574 152.154L138.37 152.199C138.969 149.525 139.401 146.964 139.787 144.649C140.172 142.334 140.504 140.259 140.808 138.529C141.112 136.799 141.389 135.405 141.603 134.443C141.702 133.989 141.798 133.599 141.857 133.353C141.884 133.24 141.911 133.145 141.929 133.072C141.94 133.054 141.952 133.038 141.966 133.022Z" fill="black"></path><path d="M88.1577 160.38C88.1795 160.491 88.1901 160.603 88.1895 160.716L88.244 161.683C88.2894 162.527 88.3348 163.744 88.3802 165.251C88.471 168.261 88.5345 172.425 88.4891 177.019C88.4437 181.614 88.2984 185.781 88.1532 188.787C88.076 190.294 88.0079 191.511 87.9489 192.351C87.9171 192.755 87.8944 193.073 87.8762 193.318C87.8714 193.431 87.8577 193.543 87.8354 193.654C87.8226 193.542 87.8226 193.429 87.8354 193.318L87.8671 192.346C87.8944 191.479 87.9398 190.267 87.9943 188.782C88.0987 185.772 88.2167 181.614 88.2621 177.019C88.3075 172.425 88.2621 168.266 88.2213 165.251C88.1986 163.767 88.1759 162.555 88.1622 161.688C88.1622 161.283 88.1622 160.961 88.1622 160.716C88.1488 160.604 88.1473 160.492 88.1577 160.38Z" fill="black"></path><path d="M192.555 148.644C192.312 148.667 192.067 148.667 191.824 148.644C191.159 148.607 190.497 148.522 189.845 148.39C187.695 147.925 185.621 147.161 183.684 146.12C182.54 145.525 181.477 144.93 180.533 144.304C179.679 143.784 178.942 143.093 178.368 142.275C177.986 141.716 177.748 141.072 177.673 140.4C177.657 140.218 177.657 140.036 177.673 139.855C177.675 139.789 177.689 139.725 177.714 139.664C177.736 139.664 177.714 139.927 177.764 140.386C177.868 141.04 178.121 141.661 178.504 142.202C179.083 142.984 179.813 143.642 180.651 144.136C181.586 144.722 182.658 145.316 183.788 145.902C185.709 146.936 187.755 147.717 189.876 148.226C190.521 148.369 191.173 148.478 191.829 148.553C192.073 148.565 192.315 148.596 192.555 148.644Z" fill="black"></path><path d="M183.934 151.459C183.754 151.401 183.582 151.321 183.421 151.223C183.222 151.129 183.031 151.021 182.849 150.901C182.597 150.751 182.355 150.587 182.122 150.41C181.507 149.964 180.936 149.461 180.415 148.907C179.779 148.223 179.215 147.477 178.731 146.678C178.259 145.875 177.868 145.026 177.564 144.145C177.322 143.424 177.149 142.683 177.046 141.929C177.001 141.641 176.972 141.35 176.96 141.058C176.945 140.839 176.945 140.619 176.96 140.4C176.951 140.211 176.963 140.022 176.996 139.837C177.046 139.837 176.996 140.64 177.228 141.902C177.355 142.64 177.542 143.365 177.786 144.072C178.099 144.935 178.49 145.768 178.953 146.56C179.43 147.342 179.979 148.077 180.592 148.758C181.098 149.31 181.65 149.818 182.24 150.279C183.234 151.064 183.956 151.414 183.934 151.459Z" fill="black"></path><g opacity="0.3"><path d="M82.1967 147.373C79.6361 147.246 77.2027 148.735 75.6046 150.746C74.0065 152.757 73.1485 155.241 72.4629 157.711C69.6113 168.013 69.385 178.865 71.8046 189.277L78.4557 193.295C81.7926 185.936 77.8792 177.16 79.786 169.31C80.4306 166.654 81.7155 164.212 82.9957 161.797L85.9377 156.226C86.6141 154.95 87.2997 153.602 87.2997 152.14C87.2452 149.593 84.7573 147.5 82.1967 147.373Z" fill="black"></path></g><path d="M66.738 162.904C66.9254 160.766 67.253 158.643 67.7186 156.548C68.4541 153.37 70.9829 141.689 71.5549 140.626C72.127 139.564 73.0259 138.093 75.4775 138.747C77.9291 139.401 82.2512 140.136 82.9866 141.017C83.4092 141.503 83.6917 142.094 83.8039 142.728C83.8039 142.728 85.52 144.036 85.6199 144.853C85.6743 145.26 85.6743 145.672 85.6199 146.079C85.6199 146.079 86.8456 145.934 86.6822 147.518C86.5188 149.103 86.1919 148.771 86.1919 148.771C86.1919 148.771 87.6629 149.098 87.2543 150.324C86.8457 151.55 85.6199 152.857 84.7209 153.593C83.822 154.328 81.947 153.838 81.947 153.838C81.3564 155.794 80.5621 157.682 79.5771 159.472C78.1062 162.001 76.6352 162.9 76.6352 162.9L66.738 162.904Z" fill="#FFBF9D"></path><path d="M85.9513 148.59C85.6273 148.58 85.3056 148.531 84.9933 148.444L83.9673 148.217L83.368 148.077C83.1385 148.038 82.9155 147.968 82.7052 147.868C82.4849 147.742 82.3222 147.535 82.2512 147.291C82.1911 147.101 82.1104 146.919 82.0105 146.746C81.8334 146.46 81.5964 146.215 81.3159 146.029C81.0421 145.874 80.7549 145.743 80.4579 145.639C80.7934 145.611 81.1282 145.699 81.4067 145.888C81.7247 146.07 81.9942 146.325 82.1921 146.633C82.4509 146.964 82.46 147.491 82.8096 147.663C83.0026 147.751 83.2053 147.815 83.4134 147.854L84.0127 148.008L85.0251 148.281C85.3451 148.346 85.656 148.45 85.9513 148.59Z" fill="#FF9A6C"></path><path d="M85.5427 145.802C85.2095 145.466 84.815 145.196 84.3804 145.008C83.899 144.82 83.3979 144.688 82.8868 144.613C82.2441 144.53 81.6123 144.378 81.0027 144.159C80.4367 143.873 79.8455 143.64 79.2366 143.464C78.7363 143.352 78.2207 143.324 77.7112 143.382C77.2489 143.46 76.7935 143.573 76.3492 143.723C76.4462 143.634 76.5606 143.566 76.6851 143.523C77.0112 143.374 77.3566 143.272 77.7112 143.219C78.2397 143.13 78.7801 143.141 79.3047 143.251C79.9319 143.419 80.5403 143.65 81.1207 143.941C81.7099 144.151 82.3181 144.303 82.9367 144.395C83.4605 144.483 83.9714 144.635 84.4576 144.849C84.7881 144.998 85.0858 145.211 85.3338 145.475C85.4927 145.666 85.5563 145.798 85.5427 145.802Z" fill="#FF9A6C"></path><path d="M83.3272 142.642C83.3272 142.679 82.8232 142.306 81.9288 141.957C81.4055 141.754 80.8599 141.614 80.3035 141.539C79.9857 141.498 79.6588 141.494 79.3047 141.475C78.9237 141.47 78.5498 141.372 78.2151 141.189C77.8792 140.999 77.6068 140.735 77.3071 140.577C77.0303 140.404 76.7214 140.29 76.3991 140.241C75.8483 140.162 75.287 140.207 74.7556 140.372C73.8476 140.654 73.3074 140.949 73.2892 140.903C73.3962 140.809 73.5172 140.733 73.6479 140.676C73.989 140.496 74.3443 140.345 74.7102 140.222C75.2627 140.026 75.8541 139.964 76.4354 140.041C76.7849 140.089 77.1205 140.21 77.4206 140.395C77.7293 140.581 78.0017 140.849 78.3286 140.999C78.937 141.362 79.6906 141.217 80.3262 141.339C80.8984 141.413 81.4577 141.566 81.9879 141.793C82.3442 141.947 82.6835 142.137 83.0003 142.361C83.1241 142.436 83.2345 142.531 83.3272 142.642Z" fill="#FF9A6C"></path><path d="M85.0024 152.825C85.0024 152.825 84.7709 152.975 84.3441 152.903C84.0921 152.853 83.8592 152.734 83.6722 152.558C83.4358 152.331 83.2851 152.029 83.2454 151.704H83.4724C83.445 151.907 83.3948 152.107 83.3226 152.299C83.2629 152.474 83.1681 152.635 83.044 152.773C82.9199 152.91 82.7691 153.021 82.6008 153.098C82.4558 153.164 82.2962 153.192 82.1373 153.18C81.9784 153.167 81.8254 153.114 81.6928 153.025L81.8199 152.903C81.962 153.12 82.0186 153.382 81.9788 153.638C81.9515 153.815 81.8925 153.897 81.8789 153.892C81.8653 153.888 81.8789 153.792 81.8789 153.629C81.8761 153.404 81.8031 153.185 81.6701 153.003L81.3659 152.603L81.7926 152.88C81.9027 152.94 82.026 152.971 82.1513 152.971C82.2766 152.971 82.3999 152.94 82.51 152.88C82.6484 152.811 82.7719 152.715 82.8732 152.598C82.9745 152.482 83.0516 152.346 83.1002 152.199C83.1645 152.022 83.2117 151.84 83.2409 151.654L83.3771 150.787L83.4679 151.659C83.4988 151.934 83.6182 152.192 83.8084 152.394C83.9643 152.557 84.1599 152.676 84.3759 152.739C84.5814 152.788 84.7913 152.817 85.0024 152.825Z" fill="#FF9A6C"></path><path d="M78.2514 193.186C78.2514 193.186 74.6875 169.387 76.5989 162.904L74.4741 160.18L66.7198 162.904C66.7198 162.904 60.5227 187.048 60.382 192.01C60.382 192.01 59.6919 198.008 67.5461 198.008C75.4003 198.008 78.2514 193.186 78.2514 193.186Z" fill="#FFBF9D"></path><g opacity="0.3"><path d="M141.852 133.558C140.531 139.006 139.809 146.833 138.488 152.281C136.899 150.773 135.029 149.243 132.65 148.808C132.718 149.825 132.346 150.624 132.414 151.654L133.022 160.716C132.944 157.868 133.286 155.025 134.034 152.276L139.56 157.084L141.548 150.624C141.702 150.124 141.839 149.616 141.943 149.103C142.788 144.903 142.442 137.78 141.852 133.558Z" fill="black"></path></g><g opacity="0.3"><path d="M141.775 150.042C141.698 150.22 141.634 150.406 141.557 150.583C141.557 150.655 141.516 150.728 141.494 150.796L141.775 150.042Z" fill="black"></path></g><path d="M158.723 86.8774C158.723 86.8774 156.562 86.8774 157.838 89.6014C159.113 92.3254 159.313 92.2528 159.899 92.5479C160.484 92.843 164.021 93.8236 164.021 93.8236C164.021 93.8236 165.297 96.2752 169.319 96.1799L177.464 89.438C177.464 89.438 172.261 82.7687 170.985 79.904C169.71 77.0393 168.439 74.9963 166.963 75.2914C166.963 75.2914 164.807 74.9645 164.039 76.2947C163.272 77.6249 159.54 80.1809 158.668 81.2024C157.797 82.2239 156.88 83.8129 156.98 84.5802C157.079 85.3475 158.723 86.8774 158.723 86.8774Z" fill="#FFBF9D"></path><path d="M166.264 94.4773C166.104 94.4023 165.962 94.2922 165.851 94.155C165.524 93.7999 165.278 93.3787 165.129 92.9201C164.913 92.2474 164.782 91.5504 164.738 90.8453C164.699 90.0008 164.534 89.1669 164.248 88.371C163.912 87.5402 163.449 86.7957 163.159 86.0466C162.861 85.3917 162.748 84.668 162.832 83.9536C162.897 83.4697 163.113 83.0187 163.449 82.6643C163.54 82.5689 163.644 82.4864 163.758 82.4191C163.795 82.394 163.837 82.3756 163.88 82.3646C163.88 82.3646 163.726 82.4736 163.517 82.7233C163.223 83.0861 163.038 83.5257 162.986 83.9899C162.931 84.6731 163.057 85.3587 163.349 85.9785C163.644 86.7003 164.112 87.4358 164.457 88.2984C164.752 89.1151 164.917 89.9729 164.947 90.8408C164.977 91.5324 165.089 92.2181 165.279 92.8838C165.465 93.4908 165.804 94.0396 166.264 94.4773Z" fill="#FF9A6C"></path><path d="M164.393 88.4211C164.156 88.6017 163.879 88.7231 163.585 88.7752C163.269 88.8527 162.942 88.8773 162.618 88.8478C162.227 88.8083 161.84 88.737 161.461 88.6344C160.77 88.4406 160.13 88.0982 159.586 87.6311C159.349 87.4519 159.151 87.2263 159.004 86.9683C159.244 87.1312 159.472 87.3086 159.69 87.4994C160.237 87.9076 160.852 88.215 161.506 88.4074C162.16 88.6205 162.852 88.6901 163.535 88.6117C164.067 88.53 164.38 88.3847 164.393 88.4211Z" fill="#FF9A6C"></path><path d="M160.852 82.3011C160.852 82.3011 161.106 82.4283 161.356 82.796C161.684 83.2956 161.821 83.8969 161.742 84.4894L161.706 84.385C161.773 84.4499 161.834 84.5214 161.887 84.5984C162.006 84.7782 162.076 84.9856 162.09 85.2005C162.104 85.4154 162.063 85.6303 161.969 85.8242L161.842 85.6744C162.208 85.5753 162.596 85.6075 162.941 85.7652C163.186 85.8832 163.286 86.0058 163.272 86.0194C163.258 86.033 163.131 85.9558 162.895 85.8832C162.573 85.7794 162.227 85.7794 161.905 85.8832L161.669 85.9604L161.778 85.7379C161.848 85.5756 161.877 85.3985 161.861 85.2225C161.845 85.0465 161.785 84.8772 161.688 84.7301C161.647 84.6692 161.6 84.6128 161.547 84.5621L161.501 84.5167V84.4576C161.573 83.915 161.472 83.3635 161.211 82.8823C161.02 82.51 160.829 82.3284 160.852 82.3011Z" fill="#FF9A6C"></path><path d="M162.922 84.6618C162.922 84.6891 162.877 84.7526 162.745 84.798C162.575 84.8465 162.393 84.8385 162.228 84.7753C162.06 84.7162 161.916 84.6028 161.819 84.453C161.751 84.3395 161.747 84.2532 161.774 84.2396C161.801 84.226 161.996 84.4439 162.31 84.5529C162.623 84.6618 162.895 84.6028 162.922 84.6618Z" fill="#FF9A6C"></path><path d="M164.802 90.346C164.938 90.6556 165.014 90.9885 165.024 91.3267C165.033 91.4142 165.033 91.5024 165.024 91.59C165.016 91.6457 164.994 91.6986 164.961 91.7443C164.934 91.8079 164.811 91.8397 164.788 91.8397C164.692 91.8659 164.593 91.8842 164.493 91.8942C164.377 91.8849 164.265 91.8475 164.166 91.7852C163.768 91.573 163.399 91.3106 163.068 91.0043C162.481 90.4458 161.968 89.8141 161.542 89.1248C161.343 88.8559 161.181 88.5612 161.061 88.2485C161.293 88.4866 161.5 88.7483 161.678 89.0294C162.136 89.6826 162.654 90.2906 163.227 90.8454C163.547 91.136 163.897 91.3917 164.271 91.6081C164.339 91.6539 164.417 91.6848 164.498 91.6989C164.583 91.6939 164.668 91.6817 164.752 91.6626C164.852 91.6899 164.866 91.481 164.87 91.3448C164.843 90.7183 164.757 90.346 164.802 90.346Z" fill="#FF9A6C"></path><path d="M161.084 92.3663C161.306 91.9264 161.497 91.4713 161.656 91.0043C161.742 90.5228 161.795 90.0358 161.815 89.547C161.992 90.0343 162.018 90.5641 161.887 91.066C161.756 91.568 161.476 92.0183 161.084 92.3573V92.3663Z" fill="#FF9A6C"></path><path d="M168.212 77.584C168.089 77.0988 167.855 76.6493 167.526 76.272C167.137 75.9626 166.682 75.7468 166.196 75.6409C166.196 75.6137 166.373 75.5637 166.65 75.6046C167.034 75.6601 167.391 75.8348 167.671 76.104C167.954 76.3702 168.148 76.7176 168.225 77.0982C168.28 77.4024 168.243 77.584 168.212 77.584Z" fill="#FF9A6C"></path><path d="M177.464 89.438C177.464 89.438 186.744 105.251 190.176 112.969C195.847 125.735 198.462 141.929 198.462 141.929C198.462 141.929 198.162 144.436 193.354 143.745C188.546 143.055 179.325 142.347 178.626 136.935C177.927 131.524 178.626 125.844 176.424 116.66C174.223 107.475 169.324 96.2298 169.324 96.2298L173.818 89.5833L177.464 89.438Z" fill="#FFBF9D"></path></svg>